<svg xmlns="http://www.w3.org/2000/svg" width="2560" height="1440" preserveAspectRatio="none"><g mask="url('#SvgjsMask1223')" fill="none"><path d="M359.228 1632.965c126.564 3.239 257.667-40.511 320.996-150.139 63.351-109.665 33.755-243.903-30.229-353.2-63.203-107.963-165.664-194.822-290.767-195.123-125.549-.303-232.568 83.779-293.203 193.715-58.471 106.013-61.355 234.188-.543 338.876 60.537 104.214 173.264 162.788 293.746 165.871M1013.988 465.18c104.367 6.549 219.48-21.831 269.798-113.501 49.12-89.487-3.437-191.686-53.42-280.694-51.514-91.734-111.41-192.641-216.378-199.751-114.261-7.739-224.159 63.384-273.893 166.544-44.844 93.017 1.274 196.419 56.99 283.362 50.191 78.321 124.063 138.215 216.903 144.04" fill="rgba(59, 175, 73, 0.1)" class="triangle-float2"/><path d="M2756.783 1360.64c150.189 10.983 308.335-55.692 376.191-190.128 63.462-125.731-12.385-264.668-86.044-384.71-68.992-112.437-158.397-221.737-290.147-228.37-141.825-7.14-280.388 70.209-345.585 196.363-60.989 118.011-11.756 252.448 53.981 367.881 66.654 117.045 157.27 229.14 291.604 238.964" fill="rgba(59, 175, 73, 0.1)" class="triangle-float3"/><path d="M1936.486 1069.583c90.769 1.654 164.631-68.399 205.504-149.462 36.87-73.125 28.557-159.276-14.808-228.746-40.777-65.325-113.69-100.829-190.696-100.473-76.346.353-148.42 36.735-187.663 102.224-40.363 67.358-40.299 149.457-5.266 219.735 39.618 79.476 104.141 155.104 192.929 156.722" fill="rgba(59, 175, 73, 0.1)" class="triangle-float1"/><path d="M1925.504 843.052c52.301-1.561 103.602-24.101 128.61-70.062 24.087-44.268 12.142-97.341-14.121-140.354-25.011-40.964-66.495-70.694-114.489-70.285-47.355.403-85.293 32.539-111.16 72.207-29.247 44.851-56.668 99.282-31.477 146.53 26.139 49.027 87.102 63.622 142.637 61.964" fill="rgba(59, 175, 73, 0.1)" class="triangle-float3"/><path d="M380.113 1110.176c49.848-.215 82.702-45.348 108.058-88.266 25.979-43.972 51.628-95.621 27.024-140.377-25.18-45.803-82.895-59.09-135.082-56.184-46.888 2.611-88.518 28.849-111.318 69.904-22.135 39.856-19.336 87.115 1.632 127.597 23.037 44.478 59.596 87.542 109.686 87.326M911.746 1027.379c77.66 2.085 149.792-41.554 188.068-109.159 37.734-66.648 35.498-149.267-4.926-214.319-38.341-61.7-110.499-88.465-183.142-88.329-72.37.135-145.426 26.54-181.961 89.011-36.842 62.995-25.233 140.417 10.603 203.989 36.581 64.895 96.89 116.808 171.358 118.807" fill="rgba(59, 175, 73, 0.1)" class="triangle-float2"/><path d="M934.591 1313.678c116.59 9.059 245.513-9.336 309.195-107.417 68.13-104.931 55.691-244.899-12.22-349.972-62.746-97.082-181.383-129.145-296.975-128.423-114.047.713-236.357 31.779-290.615 132.095-52.493 97.053-4.741 211.037 54.772 303.951 53.835 84.049 136.331 142.034 235.843 149.766" fill="rgba(59, 175, 73, 0.1)" class="triangle-float3"/><path d="M1545.419 950.909c135.617-2.096 253.606-78.07 327.699-191.677 82.974-127.225 139.041-283.567 70.722-419.226-74.045-147.03-233.819-234.07-398.421-231.478-160.438 2.526-302.91 101.503-377.267 243.692-69.305 132.528-48.191 290.892 31.541 417.42 74.353 117.991 206.279 183.424 345.726 181.269" fill="rgba(59, 175, 73, 0.1)" class="triangle-float2"/><path d="M2298.307 1653.176c120.186 2.084 245.77-36.152 305.816-140.284 60.003-104.057 34.778-234.8-31.928-334.692-59.591-89.236-166.617-120.614-273.888-123.264-113.47-2.803-236.967 13.666-298.376 109.125-65.465 101.765-52.619 235.234 10.397 338.533 60.463 99.114 171.895 148.569 287.979 150.582" fill="rgba(59, 175, 73, 0.1)" class="triangle-float1"/><path d="M1565.008 1248.506c47.646 1.565 93.049-24.611 115.627-66.598 21.545-40.067 13.707-89.016-11.629-126.8-22.597-33.699-63.438-46.694-103.998-45.633-38.476 1.007-74.596 18.191-94.981 50.838-21.704 34.76-26.662 77.824-8.198 114.408 20.419 40.457 57.885 72.297 103.179 73.785" fill="rgba(59, 175, 73, 0.1)" class="triangle-float2"/><path d="M2347.009 650.274c122.095 1.885 229.886-73.571 290.991-179.293 61.158-105.814 73.543-237.373 10.269-341.936C2586.907 27.641 2465.5-12.728 2347.009-9.897c-113.081 2.702-220.254 55.101-277.314 152.767-57.557 98.517-53.241 219.241 1.478 319.362 57.199 104.657 156.582 186.201 275.836 188.042" fill="rgba(59, 175, 73, 0.1)" class="triangle-float3"/></g><defs><style>@keyframes float1{0%{transform:translate(0)}50%{transform:translate(-10px)}to{transform:translate(0)}}.triangle-float1{animation:5s infinite float1}@keyframes float2{0%{transform:translate(0)}50%{transform:translate(-5px,-5px)}to{transform:translate(0)}}.triangle-float2{animation:4s infinite float2}@keyframes float3{0%{transform:translate(0)}50%{transform:translateY(-10px)}to{transform:translate(0)}}.triangle-float3{animation:6s infinite float3}</style><mask id="SvgjsMask1223"><path fill="#fff" d="M0 0h2560v1440H0z"/></mask></defs></svg>