<svg xmlns="http://www.w3.org/2000/svg" viewBox="0 0 256 256" width="24" height="24"><path d="M20.303 2.984a2.437 2.437 0 0 0-.787.188c-.216.085-.988.41-2.22.926l-4.599 1.931-9.385 3.95c-.068.028-.347.114-.656.35-.309.235-.652.747-.652 1.308 0 .452.226.912.498 1.175.272.264.548.387.78.479v-.002c.78.31 3.109 1.243 3.663 1.465.197.59 1.042 3.113 1.243 3.748h-.002c.142.45.28.742.472.986.096.122.211.233.352.32.054.034.114.06.174.085l.025.007-.023-.005c.017.007.033.017.05.023.03.01.05.01.088.018.137.042.274.07.4.07.544 0 .878-.295.878-.295l.021-.016 2.348-1.986 2.875 2.66c.052.074.464.631 1.416.631.568 0 1.017-.281 1.304-.576.288-.295.467-.597.547-1.006l.002-.002c.064-.33 2.817-14.15 2.817-14.15l-.006.023c.085-.382.11-.752.01-1.129a1.62 1.62 0 0 0-.704-.937 1.65 1.65 0 0 0-.93-.239zm-.395 2.19c-.109.546-2.574 12.932-2.726 13.709l-4.153-3.842-2.806 2.373.777-3.039s5.363-5.428 5.686-5.744c.26-.253.314-.342.314-.43 0-.117-.06-.201-.2-.201-.124 0-.294.12-.384.176-1.144.713-6.015 3.489-8.41 4.851-.144-.057-2.309-.927-3.475-1.392a44504.747 44504.747 0 0 1 13.54-5.694c1.037-.435 1.579-.66 1.837-.767zm-2.756 13.851h.002l-.002.006c.002-.006 0 0 0-.006z" transform="scale(10.66667)" fill="#a9a9a9" stroke-miterlimit="10" font-family="none" font-weight="none" font-size="none" text-anchor="none" style="mix-blend-mode:normal"/></svg>