<svg xmlns="http://www.w3.org/2000/svg" viewBox="0 0 256 256" width="24" height="24"><path d="M19.229 6.012c-.903-.73-2.015-1.246-2.872-1.572a.998.998 0 0 0-.923.111.997.997 0 0 0-.434.823c0 .346-.28.626-.626.626H9.625A.625.625 0 0 1 9 5.375a1 1 0 0 0-1.357-.934c-.86.329-1.978.85-2.894 1.59C3.831 6.882 2 11.861 2 16.165c0 .076.019.15.057.216 1.265 2.233 4.714 2.817 5.499 2.842l.014.001c.139 0 .286-.056.351-.18l.783-1.485a22.741 22.741 0 0 1-2.04-.617 1 1 0 1 1 .67-1.884c3.526 1.254 5.624 1.253 9.345-.005a1.001 1.001 0 0 1 .641 1.895c-.728.246-1.392.434-2.035.594l.793 1.503c.065.124.213.18.351.18l.014-.001c.786-.025 4.235-.61 5.499-2.843a.423.423 0 0 0 .058-.217c0-4.303-1.831-9.282-2.771-10.152zM9.04 13.988c-.829 0-1.5-.893-1.5-1.996 0-1.102.671-1.996 1.5-1.996.832-.11 1.482.893 1.5 1.996 0 1.103-.671 1.996-1.5 1.996zm5.956.024c-.829 0-1.5-.895-1.5-2s.671-2 1.5-2 1.5.895 1.5 2-.671 2-1.5 2z" transform="scale(10.66667)" fill="#a9a9a9" stroke-miterlimit="10" font-family="none" font-weight="none" font-size="none" text-anchor="none" style="mix-blend-mode:normal"/></svg>