<svg xmlns="http://www.w3.org/2000/svg" version="1.1" xmlns:xlink="http://www.w3.org/1999/xlink" xmlns:svgjs="http://svgjs.dev/svgjs" width="2560" height="1440" preserveAspectRatio="none" viewBox="0 0 2560 1440"><g mask="url(&quot;#SvgjsMask1223&quot;)" fill="none"><path d="M359.228,1632.965C485.792,1636.204,616.895,1592.454,680.224,1482.826C743.575,1373.161,713.979,1238.923,649.995,1129.626C586.792,1021.663,484.331,934.804,359.228,934.503C233.679,934.2,126.66,1018.282,66.025,1128.218C7.554,1234.231,4.67,1362.406,65.482,1467.094C126.019,1571.308,238.746,1629.882,359.228,1632.965" fill="rgba(59, 175, 73, 0.1)" class="triangle-float2"></path><path d="M1013.988,465.18C1118.355,471.729,1233.468,443.349,1283.786,351.679C1332.906,262.192,1280.349,159.993,1230.366,70.985C1178.852,-20.749,1118.956,-121.656,1013.988,-128.766C899.727,-136.505,789.829,-65.382,740.095,37.778C695.251,130.795,741.369,234.197,797.085,321.14C847.276,399.461,921.148,459.355,1013.988,465.18" fill="rgba(59, 175, 73, 0.1)" class="triangle-float2"></path><path d="M2756.783,1360.64C2906.972,1371.623,3065.118,1304.948,3132.974,1170.512C3196.436,1044.781,3120.589,905.844,3046.93,785.802C2977.938,673.365,2888.533,564.065,2756.783,557.432C2614.958,550.292,2476.395,627.641,2411.198,753.795C2350.209,871.806,2399.442,1006.243,2465.179,1121.676C2531.833,1238.721,2622.449,1350.816,2756.783,1360.64" fill="rgba(59, 175, 73, 0.1)" class="triangle-float3"></path><path d="M1936.486,1069.583C2027.255,1071.237,2101.117,1001.184,2141.99,920.121C2178.86,846.996,2170.547,760.845,2127.182,691.375C2086.405,626.05,2013.492,590.546,1936.486,590.902C1860.14,591.255,1788.066,627.637,1748.823,693.126C1708.46,760.484,1708.524,842.583,1743.557,912.861C1783.175,992.337,1847.698,1067.965,1936.486,1069.583" fill="rgba(59, 175, 73, 0.1)" class="triangle-float1"></path><path d="M1925.504,843.052C1977.805,841.491,2029.106,818.951,2054.114,772.99C2078.201,728.722,2066.256,675.649,2039.993,632.636C2014.982,591.672,1973.498,561.942,1925.504,562.351C1878.149,562.754,1840.211,594.89,1814.344,634.558C1785.097,679.409,1757.676,733.84,1782.867,781.088C1809.006,830.115,1869.969,844.71,1925.504,843.052" fill="rgba(59, 175, 73, 0.1)" class="triangle-float3"></path><path d="M380.113,1110.176C429.961,1109.961,462.815,1064.828,488.171,1021.91C514.15,977.938,539.799,926.289,515.195,881.533C490.015,835.73,432.3,822.443,380.113,825.349C333.225,827.96,291.595,854.198,268.795,895.253C246.66,935.109,249.459,982.368,270.427,1022.85C293.464,1067.328,330.023,1110.392,380.113,1110.176" fill="rgba(59, 175, 73, 0.1)" class="triangle-float2"></path><path d="M911.746,1027.379C989.406,1029.464,1061.538,985.825,1099.814,918.22C1137.548,851.572,1135.312,768.953,1094.888,703.901C1056.547,642.201,984.389,615.436,911.746,615.572C839.376,615.707,766.32,642.112,729.785,704.583C692.943,767.578,704.552,845,740.388,908.572C776.969,973.467,837.278,1025.38,911.746,1027.379" fill="rgba(59, 175, 73, 0.1)" class="triangle-float2"></path><path d="M934.591,1313.678C1051.181,1322.737,1180.104,1304.342,1243.786,1206.261C1311.916,1101.33,1299.477,961.362,1231.566,856.289C1168.82,759.207,1050.183,727.144,934.591,727.866C820.544,728.579,698.234,759.645,643.976,859.961C591.483,957.014,639.235,1070.998,698.748,1163.912C752.583,1247.961,835.079,1305.946,934.591,1313.678" fill="rgba(59, 175, 73, 0.1)" class="triangle-float3"></path><path d="M1545.419,950.909C1681.036,948.813,1799.025,872.839,1873.118,759.232C1956.092,632.007,2012.159,475.665,1943.84,340.006C1869.795,192.976,1710.021,105.936,1545.419,108.528C1384.981,111.054,1242.509,210.031,1168.152,352.22C1098.847,484.748,1119.961,643.112,1199.693,769.64C1274.046,887.631,1405.972,953.064,1545.419,950.909" fill="rgba(59, 175, 73, 0.1)" class="triangle-float2"></path><path d="M2298.307,1653.176C2418.493,1655.26,2544.077,1617.024,2604.123,1512.892C2664.126,1408.835,2638.901,1278.092,2572.195,1178.2C2512.604,1088.964,2405.578,1057.586,2298.307,1054.936C2184.837,1052.133,2061.34,1068.602,1999.931,1164.061C1934.466,1265.826,1947.312,1399.295,2010.328,1502.594C2070.791,1601.708,2182.223,1651.163,2298.307,1653.176" fill="rgba(59, 175, 73, 0.1)" class="triangle-float1"></path><path d="M1565.008,1248.506C1612.654,1250.071,1658.057,1223.895,1680.635,1181.908C1702.18,1141.841,1694.342,1092.892,1669.006,1055.108C1646.409,1021.409,1605.568,1008.414,1565.008,1009.475C1526.532,1010.482,1490.412,1027.666,1470.027,1060.313C1448.323,1095.073,1443.365,1138.137,1461.829,1174.721C1482.248,1215.178,1519.714,1247.018,1565.008,1248.506" fill="rgba(59, 175, 73, 0.1)" class="triangle-float2"></path><path d="M2347.009,650.274C2469.104,652.159,2576.895,576.703,2638,470.981C2699.158,365.167,2711.543,233.608,2648.269,129.045C2586.907,27.641,2465.5,-12.728,2347.009,-9.897C2233.928,-7.195,2126.755,45.204,2069.695,142.87C2012.138,241.387,2016.454,362.111,2071.173,462.232C2128.372,566.889,2227.755,648.433,2347.009,650.274" fill="rgba(59, 175, 73, 0.1)" class="triangle-float3"></path></g><defs><mask id="SvgjsMask1223"><rect width="2560" height="1440" fill="#ffffff"></rect></mask><style>
                @keyframes float1 {
                    0%{transform: translate(0, 0)}
                    50%{transform: translate(-10px, 0)}
                    100%{transform: translate(0, 0)}
                }

                .triangle-float1 {
                    animation: float1 5s infinite;
                }

                @keyframes float2 {
                    0%{transform: translate(0, 0)}
                    50%{transform: translate(-5px, -5px)}
                    100%{transform: translate(0, 0)}
                }

                .triangle-float2 {
                    animation: float2 4s infinite;
                }

                @keyframes float3 {
                    0%{transform: translate(0, 0)}
                    50%{transform: translate(0, -10px)}
                    100%{transform: translate(0, 0)}
                }

                .triangle-float3 {
                    animation: float3 6s infinite;
                }
            </style></defs></svg>