<svg xmlns="http://www.w3.org/2000/svg" xmlns:xlink="http://www.w3.org/1999/xlink" viewBox="0,0,256,256" width="24px" height="24px" fill-rule="nonzero"><g fill="#a9a9a9" fill-rule="nonzero" stroke="none" stroke-width="1" stroke-linecap="butt" stroke-linejoin="miter" stroke-miterlimit="10" stroke-dasharray="" stroke-dashoffset="0" font-family="none" font-weight="none" font-size="none" text-anchor="none" style="mix-blend-mode: normal"><g transform="scale(10.66667,10.66667)"><path d="M19.229,6.012c-0.903,-0.73 -2.015,-1.246 -2.872,-1.572c-0.307,-0.117 -0.653,-0.076 -0.923,0.111c-0.272,0.186 -0.434,0.494 -0.434,0.823c0,0.346 -0.28,0.626 -0.626,0.626c-1.573,0 -3.176,0 -4.749,0c-0.345,0 -0.625,-0.28 -0.625,-0.625c0,-0.329 -0.162,-0.638 -0.433,-0.824c-0.271,-0.187 -0.617,-0.228 -0.924,-0.11c-0.86,0.329 -1.978,0.85 -2.894,1.59c-0.918,0.851 -2.749,5.83 -2.749,10.134c0,0.076 0.019,0.15 0.057,0.216c1.265,2.233 4.714,2.817 5.499,2.842c0.005,0.001 0.009,0.001 0.014,0.001c0.139,0 0.286,-0.056 0.351,-0.18l0.783,-1.485c-0.646,-0.164 -1.313,-0.359 -2.04,-0.617c-0.521,-0.185 -0.792,-0.757 -0.607,-1.277c0.185,-0.52 0.758,-0.791 1.277,-0.607c3.526,1.254 5.624,1.253 9.345,-0.005c0.525,-0.175 1.092,0.104 1.268,0.627c0.177,0.523 -0.104,1.091 -0.627,1.268c-0.728,0.246 -1.392,0.434 -2.035,0.594l0.793,1.503c0.065,0.124 0.213,0.18 0.351,0.18c0.005,0 0.009,0 0.014,-0.001c0.786,-0.025 4.235,-0.61 5.499,-2.843c0.039,-0.066 0.058,-0.14 0.058,-0.217c0,-4.303 -1.831,-9.282 -2.771,-10.152zM9.04,13.988c-0.829,0 -1.5,-0.893 -1.5,-1.996c0,-1.102 0.671,-1.996 1.5,-1.996c0.832,-0.11 1.482,0.893 1.5,1.996c0,1.103 -0.671,1.996 -1.5,1.996zM14.996,14.012c-0.829,0 -1.5,-0.895 -1.5,-2c0,-1.105 0.671,-2 1.5,-2c0.829,0 1.5,0.895 1.5,2c0,1.105 -0.671,2 -1.5,2z"></path></g></g></svg>